<?xml version="1.0" encoding="utf-8"?>
<!-- Generator: Adobe Illustrator 25.1.0, SVG Export Plug-In . SVG Version: 6.00 Build 0)  -->
<svg version="1.1" id="marker-15" xmlns="http://www.w3.org/2000/svg" xmlns:xlink="http://www.w3.org/1999/xlink" x="0px" y="0px"
	 viewBox="0 0 25 41" style="enable-background:new 0 0 25 41;" xml:space="preserve">
<style type="text/css">
	.st0{fill:#77E28E;}
	.st1{fill:#11D659;}
</style>
<g id="path4133">
	<path class="st0" d="M12.5,37.7c-3.9-5.1-10.6-15.5-10.6-20c0-1.1,0.3-10.7,10.7-10.7c10.4,0,10.7,9.6,10.7,10.7
		C23.2,22.8,15.7,33.2,12.5,37.7z"/>
	<path class="st1" d="M12.5,8.6c4.2,0,9.2,2.4,9.2,9.2c0,3.6-4.7,11-9.2,17.4c-4-5.5-9.1-14-9.1-17.4C3.3,11,8.3,8.6,12.5,8.6
		 M12.5,5.6C6.9,5.6,0.3,9,0.3,17.7c0,5.9,9.4,19,12.2,22.5C15,36.8,24.7,24,24.7,17.7C24.7,9,18.1,5.6,12.5,5.6L12.5,5.6z"/>
</g>
</svg>
